<svg xmlns="http://www.w3.org/2000/svg" viewBox="0 0 546.54 700.16">
  <defs>
    <style>
      .a {
        isolation: isolate;
      }

      .b {
        mix-blend-mode: darken;
      }

      .c {
        fill: #fff;
      }
    </style>
  </defs>
  <title>logo</title>
  <g class="a">
    <g class="b">
      <path d="M403.52,412.6c5.57-6,11.26-9,18.35-8.81a15.36,15.36,0,0,1,13,7.14c3.44,5.18,2.56,8.15-2.81,11.38-2.41,1.45-4.44,3.53-7.39,5.93l6.64,2.82c6,2.54,6.91,4.69,4.47,10.87-5.05,12.79-16.4,19.58-32.22,19-.56,4-.46,8.3-1.84,12.06-1.78,4.85-3.84,10.14-7.34,13.73-12.88,13.22-29.65,19.37-47.19,23.35-35.81,8.14-72.18,9.83-108.74,8.1-23.63-1.12-46.57-5.72-67.92-16.34-12.15-6-23.94-12.89-30.35-25.63-2.19-4.35-3.32-9.35-4.22-14.18-.54-2.9-1.19-4.74-4.38-4.77-3.71-.05-4.44-2.15-3.76-5.34.61-2.83-.38-4.69-3.49-4.57-3.91.15-5.18-2.4-6.89-5.32a20.31,20.31,0,0,0-6.89-7.08c-5.27-3.08-6.2-5.84-2.31-10.68,4.25-5.28,10-7.54,16.6-7.91,8.45-.47,12.4-6.07,10-14-.62-2-1-4.13-1.65-6.62-2.3.47-4.36,1-6.45,1.3-5.75.81-7.93-1.16-7-6.87,1.6-10,3.33-20,5.39-29.94.62-3,.49-4.88-2.14-6.78a53.33,53.33,0,0,1-7.26-6.85c-6.51-6.92-8.82-15.09-5-23.88,2.48-5.69,6.16-10.95,9.86-16a9,9,0,0,0,1.89-7.87,68.13,68.13,0,0,1-.38-18.7c.48-3.83,3.34-7.35,5.24-11.21-8-2.43-13.32-8.54-13.48-17.71-.19-11,7.41-16.71,17.7-21-10-3.14-7.65-9.74-6.57-16.57,3.1-19.7,10.46-37.34,23.19-52.78,17.32-21,40-32.93,65.75-40.26,35.16-10,70.64-13.42,106.58-5.54,32.81,7.19,59.43,23.24,73.44,55.47a140.75,140.75,0,0,1,10.87,42.86c1.23,12.68-1.76,17.72-12.33,23,7.24,6.8,15.07,13.43,22.05,20.86,12.44,13.26,12.73,31.28,1.51,45.26a4,4,0,0,0-.3,3.74c2.54,3.32,1.81,5.76-.87,8.67-2.1,2.27-3.37,5.3-5,7.95,8.32,11.42,7.15,17.48-5.17,26.47.66,1.59,1.33,3.24,2,4.88,5,11.83,6.49,23.38-.53,35.26-2.49,4.23-5.88,9.09-2.43,15C404.78,406.08,403.72,408.94,403.52,412.6Zm-6.16-112.4c10.72-.94,15.39-3.18,17.79-10.22,2.76-8.11,2.34-16-2.59-23.41-5.61-8.38-13.62-13.89-21.92-19.3-6.62-4.3-13-6.4-20.48-2.87-1.77.84-4,.75-5.77,1.53-2.31,1-4.83,2-6.56,3.75-9.12,9.06-19.07,17.45-31.9,19.51-30.41,4.88-60.49,6-86.33-15.56A14.46,14.46,0,0,0,233,250.4c-17.07-2.67-34.21-4.93-51.28-7.63C170.44,241,159,239.51,148,236.34c-7.68-2.22-13.12-.81-18.53,4.35-11.1,10.61-9.57,17.39,5,22.33,16.41,5.56,33.28,7.4,50.56,7.75,22.6.46,45.2,1.74,67.76,3.18,12.77.82,25.45,3.07,38.22,4,27.63,1.92,55,4.72,81,15.43C380.05,296.64,388.89,298,397.36,300.2ZM289.48,393l-.48,1.5c5.24,4.53,10.5,9,15.7,13.59,2.9,2.54,5.17,2.17,8.12-.43,13.35-11.75,27.16-23,40.35-34.89,8.94-8.08,17.12-17,25.73-25.62-8.35.58-16.27,1-24.17,1.74a41.91,41.91,0,0,0-8.74,1.74c-11,3.5-21.91,7.25-27.95,18.37-.3.56-1,.93-1.38,1.43-4,4.61-8.27,9.07-12,13.91C300.76,389.37,296.92,394,289.48,393Zm47.14-69.92c-3-.87-6-1.28-8.55-2.61-6.76-3.49-12.09-1.85-17.63,3-8.32,7.22-17.64,11.63-29.33,8.49-6.15-1.66-11.11,3.61-9.43,10,1.29,4.83-.66,7.81-3.82,10.41-3.45,2.84-7.59,4.89-10.81,7.94-2.36,2.23-5.81,6.33-5.1,8.18,1.54,4,6.22,1.94,9.78,1.87,4.92-.1,10.09-.6,14.7.68,7.26,2,13.16,1.29,16.68-5.42,5.85-11.13,14.95-18,26-23,2.36-1.06,4.4-2.84,6.59-4.28l-.88-1.31c-3.06,1.88-6,4-9.2,5.57a34.87,34.87,0,0,1-7.86,2.3c-.24.05-1.53-2.28-1.24-2.66a56.11,56.11,0,0,1,6-6.65c.77-.71,2.16-.79,3.28-1.1,3.53-1,7.14-1.68,10.57-2.89C330.61,330.08,335,328.67,336.62,323.08Zm-56.22-1.19-15-6.15c-2.94-1.19-5.4-.83-7.56,1.79-3.07,3.71-6.27,7.35-9.63,10.79-1.17,1.19-3.1,2.55-4.54,2.4-7.67-.78-11.28,3.7-13.72,9.89s-4.89,12.66-7.49,19.44a31.13,31.13,0,0,0,16.94,5.86c4.08.23,7.43-.25,9.84-4.78,1.65-3.1,5.53-5.08,8.57-7.35,2.25-1.69,5-2.76,7-4.68C266,348,267,345.48,266.57,344c-2-7,.9-11.94,5.95-16.15C274.78,326,277.2,324.31,280.4,321.89Zm-103.7-3.14c-1.75,2.18-3.32,4.09-4.84,6-4.76,6.1-10.54,10.49-18.55,11.34-5,.54-7.37,4.32-6.34,9.44a28.18,28.18,0,0,1,.06,5.57c3.76,2,7.53,4.11,11.33,6.12s7.45,4.74,11.51,5.69c2.95.7,7.85.16,9.49-1.81,8.78-10.59,16.81-21.81,25.11-32.81l-1-1.23C193,329.87,185,324.79,176.7,318.75ZM265.38,447.8l-.18-2c-7.67.43-15.36.71-23,1.34-10.08.84-20.18,2.62-30.14-.46-11.12-3.44-22.12-4.29-33.16.29a12.68,12.68,0,0,1-5.36.64,85,85,0,0,1-11.28-1.15c-1.65-.3-4.27-1.59-4.39-2.66-.42-3.74-2.78-3.54-5.34-3.66s-5.71.41-7.81-.76c-4.1-2.26-7.65-5.51-11.65-8.52l1.82-2.27a67.46,67.46,0,0,1-8.07-3.16c-2.72-1.48-5.53-2-6.86.87-.55,1.18,1.55,4,3,5.58a8.75,8.75,0,0,0,4.7,2.65c5.32.91,6.43,6.92,11,8.69.45.17.66,1.53.6,2.3-.45,5.05,2.35,6.12,6.5,5.24,5-1.07,7.33,1,8.22,5.92,1.5,8.27,7.31,10.67,14.36,5.6,7.84-5.63,15.26-11.84,25.22-10.43v-6.58c2.08.15,4.26-.07,6.2.51,3.82,1.14,7.4,3.11,11.26,4a55.31,55.31,0,0,0,13.63,1.74c8.79-.22,17.58-1.06,26.34-1.84C255.76,449.27,260.56,448.45,265.38,447.8ZM140.69,349.37c.33-2.29.3-4.5,1-6.42,1.51-4,2-9.17,7.53-10a30.06,30.06,0,0,0,18-10c3.7-4.06,7.37-8.15,10.89-12.37,1-1.21,1.47-2.89,2.18-4.36-1.74-.74-3.56-2.25-5.19-2.07-5.43.61-10.81,1.79-16.18,2.86a2.78,2.78,0,0,0-1.71,1.53c-3.32,8.78-10.28,11-18.79,10.83-1.28,0-3.25.39-3.76,1.27q-5.47,9.48-10.4,19.28c-2,3.89-.3,6.4,3.83,7.22S136.26,348.6,140.69,349.37ZM244.84,297.5c2.14,2.13,3.19,4,4.72,4.56q13.76,5,27.75,9.48c1.8.57,4-.21,6.44-.4l1.76,3c1.26-.89,2.85-1.54,3.69-2.72a69.26,69.26,0,0,0,4-7.06c-6.66-4.18-13.09-7.9-19.19-12.1-14.48-10-29.25-5.77-44.6-1.81C236.86,297.09,239.39,298.13,244.84,297.5Zm10.9-47.19c-.21.62-.43,1.24-.65,1.86,3.8,2.2,7.35,5.35,11.45,6.39,6.7,1.69,13.73,2.18,20.65,2.87,12.91,1.28,25.83,2.82,38.6-1.34a32.48,32.48,0,0,0,17.06-12.27C313.16,250.62,284.54,253.33,255.74,250.31ZM197.59,363.09c2.21-.3,4-.22,5.58-.82,15-5.85,15-5.88,21.42-21.21.31-.77.59-1.55,1-2.3,3.77-7.65,8.64-13.83,18.19-14.21,1.14,0,2.24-1.46,4.46-3-5.58.25-9.64-.12-13.41.73-5.73,1.3-12.9,1.84-16.53,5.56-8,8.23-14.23,18.24-21,27.28l4.83,3.73Zm9.93-199.61c-2.35-5.63-4.55-10.65-6.55-15.76-1.49-3.82-3.35-4.28-6.68-1.76-6.66,5.06-13.36,10.13-20.46,14.52-3,1.82-2.54,2.76-.88,4.78,2.85,3.47,5.82,6.86,8.35,10.55,1.9,2.78,3.81,2.59,6.27,1.14,5.68-3.37,11.43-6.61,17-10.08C205.85,166.1,206.61,164.57,207.52,163.48Zm-28,114.82c-10,1.09-19.35,2.11-28.7,3.19a2.33,2.33,0,0,0-1.57,1.06c-2.75,5.52-5.42,11.08-8.12,16.62l1.2,1.83,33.69-3.73C177.2,291.12,178.24,285.45,179.56,278.3Zm127.33,19.05c.5.92.93,3.15,2.06,3.59,12.58,4.9,25.25,9.58,38,14.13,1.25.45,3.59.15,4.33-.73,2.49-2.95,4.49-6.32,7.08-10.11C341.07,297.92,325.07,291.37,306.89,297.35ZM415.44,421.93c-3.25,3.84-5.88,6.91-8.46,10-.6.72-1.52,1.68-1.4,2.38.82,4.89-2.89,4.9-5.86,5.56-2.56.56-5.59.16-7.67,1.41-3.24,1.94-6.08,1.65-9.48,1-4.7-1-9.56-1.17-14.35-1.7l-.15,1.29c4.07.06,8.08-.71,11.07,3.74,1.18,1.76,5.2,2.52,7.76,2.23,3.39-.39,6.6-2.25,10-3.51l2.56,3.68c4.34-.5,8.46-.82,12.53-1.48,3.88-.62,7.71-1.59,11.56-2.41a12.75,12.75,0,0,0-2.71-3.72,24.73,24.73,0,0,1-1.92-3.6,21.92,21.92,0,0,1,4.46-.38,14.9,14.9,0,0,1,3.62,1.43c.24-.52.48-1,.71-1.55-1.25-.61-2.44-1.53-3.76-1.75-2.11-.36-4.35-.05-6.45-.43-1.67-.3-4.55-1.17-4.57-1.84a9.63,9.63,0,0,1,1.87-5.77c1.13-1.48,3.25-2.2,4.9-3.3s3.6-2,4.77-3.44,2.34-3.85,1.82-5.17-3.1-2.28-4.88-2.45c-6.19-.61-11.11,1.88-15.3,7.22ZM186.09,294.32c.16,6.75,1.12,12.51,5.68,16.78,1.11,1,4,1.85,4.91,1.18,6.17-4.77,12.11-9.86,17.88-15.11,1-.89,1.6-3.52,1-4.58-3.95-7.11-8.13-8.77-16.28-6.92-2.59.59-5.13,1.41-7.72,2.06C187.72,288.71,185.15,290.58,186.09,294.32Zm-25,81.5c-9-5-16.58-11.3-26.74-12.33-1.53,7.82-3,15.43-4.59,23.54Zm201.82-51c-.25,4.59,2.2,7.19,6.77,6.86a146,146,0,0,0,21.1-2.62c4-.88,6.71-.37,9.24,2.6,1.74,2,3.62,4,5.44,5.95-.59-5-2.69-8.89-7.34-10.37-5.64-1.8-11.4-3.22-17.15-4.64a14,14,0,0,0-5.38-.39C371.36,322.91,367.2,323.94,362.91,324.85ZM239.63,307.09c-11.67-7.39-11.72-7.46-21.91.23-2.37,1.79-4.24,4.24-6.34,6.38C221.77,314.17,230.77,311.69,239.63,307.09ZM127.22,312c-6.73,7.18-10,15.27-7.56,26.3,4.78-8.42,9-15.92,13.33-23.51Zm4-34.08c-3.48,7.07-2.44,14.78,2.5,18.6C139.81,287,140.58,281.9,131.24,277.88Zm257,33.4c3.61,2.62,3.77,10.05,10.73,8.61,4.65-1,7.83-5.73,7.93-9.51ZM301.9,444.38c7,6.83,14.27,3.3,21.89-1.33Zm19.47,5.77,20.7-4.59-.3-1.27C334.87,444.34,327.72,443.37,321.37,450.15ZM291,120.94c-1.78-.17-3.67-.93-4.43-.31a22.8,22.8,0,0,0-4.67,5.69c-.23.37,1.7,2.65,1.83,2.59a29,29,0,0,0,5.73-3.82C290.26,124.33,290.34,122.76,291,120.94Zm7.87,194,1.33,1.11,13.51-5.72c-3.39-1.08-6.05-2.86-7.33-2.15C303.48,309.77,301.3,312.6,298.84,314.93ZM264.57,124.36c-.34-.58-.67-1.16-1-1.75l-10.69,2.85c0,.78.09,1.56.13,2.34,2.15.27,4.51,1.2,6.4.63S262.87,125.78,264.57,124.36Zm48.82,115.12v-.25H276.18v.25Zm10.44-108.07c1.14-2.17,2.44-3.91,2.15-4.24a10.41,10.41,0,0,0-4.26-3c-.57-.2-1.75,1.37-2.66,2.13ZM370.66,307.6c-4.23-4.09-4.42-4.15-10,4.06,1.65-.74,3.1-1.42,4.58-2C366.85,309,368.53,308.39,370.66,307.6Zm-70-181.14c6.41.8,7.59-.61,5.81-6.3Z"/>
      <path d="M74.1,120.9c-7.43,3.71-14.37,6.55-20.63,10.48s-7.18,9.2-4,15c1.83,3.36,4.32,4.48,7.18,2,7.33-6.19,14.46-12.62,21.47-19.16,2.28-2.13,3.94-4.91,6.07-7.63a16,16,0,0,1,2.43,1.69c8.11,8.38,16.11,16.86,24.31,25.15,2.14,2.17,3.12,4,1.28,6.82-6.28,9.57-11.36,20.18-18.88,28.63-26,29.16-66.6,24.44-86.49-9.23C-.72,162-1.48,148.51,2,134.68A91.37,91.37,0,0,1,27.21,90.62C36,82.05,46.92,78.54,58.94,78.12c1.24,0,3.38,1.07,3.67,2.07C66.63,93.88,70.4,107.64,74.1,120.9Z"/>
      <path d="M139.81,503.79l-27.26,25.85c-6.17-5.15-12.1-10.4-18.37-15.21a21.75,21.75,0,0,0-8.83-4.25c-7.55-1.38-14.31,2-17,7.6-3.34,7-2.17,18.06,2.69,22.58,1.16,1.08,3.26,1.16,4.93,1.71l.67-1.47-8-9.07c5.52-6.14,10.94-12.18,16.56-18.42,9.35,6.94,18.71,13.34,27.43,20.51,9.58,7.88,9.82,22.77.58,31.54-11.61,11-25.78,15.29-41.45,12.48-23.65-4.24-43.56-28.76-42.83-52.73a43,43,0,0,1,4.52-18.14c10.55-20.06,26.8-33,49.94-35.27,12-1.17,23.05,2,32.22,10.53C123.37,489.28,131.41,496.27,139.81,503.79Z"/>
      <path d="M474.54,537.79l16.08,13.45-30.48,27-56.9-75L455,496.11l-19-17,31.09-36.67,60.16,66.4c-9,9.23-17.94,18.4-27,27.4-.84.84-2.75.88-4.15.83-6.79-.27-13.58-.71-20.37-1.08Z"/>
      <path d="M398.6,22.22c12,8.25,23.41,16,34.66,24,1,.71,1.51,2.82,1.42,4.23-.16,2.42-1,4.8-1.78,8.46,3.64-3.41,6.44-6.05,9.36-8.8l29.55,19.66L417,142.08c-4.47-3.43-8.77-6.72-13.07-10-3.82-2.94-7.54-6-11.47-8.83-4.74-3.36-9.56-6.51-7.44-14l-6.13,7.64L351.65,96.4Z"/>
      <path d="M130.53,36.89c25.59-.11,45,20.4,45.22,47.72A49.4,49.4,0,0,1,126,135c-25.58.1-46.19-20.83-46.27-47C79.65,57,99.48,37,130.53,36.89Zm-2.38,55.92c5.72,0,8.18-2,8.06-6.43-.12-4.28-3.18-7.68-6.94-7.71s-7.87,4-8,7.59C121.2,90.65,123.47,92.83,128.15,92.81Z"/>
      <path d="M267.65,646l-14.44-17.9-1.41,10-44.93-4.36c3.16-30.82,6.3-61.5,9.59-93.59,11.7,1.12,23.11,1.68,34.32,3.48a93.61,93.61,0,0,1,21.4,6.39c25,10.57,22.53,37.67,6.15,48.63l15.79,17.7Z"/>
      <path d="M141.63,616l-38.4-18.31c11.85-19.35,23.4-38.2,35-57,4.44-7.24,9-14.4,13.29-21.72,1.55-2.63,2.88-3.3,5.91-2,15.3,6.5,30.7,12.77,46.12,19,2.51,1,3.78,2,3.2,5Q198,585.44,189.5,630a12.35,12.35,0,0,1-.95,2.14l-34.61-16.46c2.24-8.68,4.39-17.17,6.64-25.62.81-3,.22-4.86-3.72-4.84ZM170.57,550l-4.63,4.58,3.62,3.36c1.08-1.21,2.57-2.27,3.1-3.68C173,553.49,171.66,552.1,170.57,550Z"/>
      <path d="M156.69,26.33,204.7,10l14.63,26.4c2.39-8.78,4.34-16.47,6.67-24,.47-1.54,2.17-3.57,3.59-3.84C242.5,6.1,255.48,4.06,268.44,2a10.36,10.36,0,0,1,2.07.24c-2,10.13-4,20.16-6.05,30.17-3.53,17.43-7.14,34.84-10.53,52.3-.56,2.9-1.58,4.15-4.62,4.66-15.25,2.55-30.45,5.43-45.69,8a4.72,4.72,0,0,1-3.93-1.58C185.33,72.76,171.11,49.68,156.69,26.33Z"/>
      <path d="M354.6,71.44c-9.31-1.43-17.84-2.83-26.41-4-2-.27-4.06.31-6.09.49,0,.67,0,1.35,0,2L350,74c-.88,8.73-1.72,17.11-2.67,26.56L272,87.08c4.23-29.26,8.38-58,12.58-87.08l53.66,8.43c7.4,1.17,14.79,2.45,22.21,3.46,2.32.32,3.8.77,3.52,3.54-.89,8.9-1.68,17.81-2.55,27.13-9.88-.59-19.32-1.08-28.74-1.75-2.9-.21-4.54.45-4,4.44L360.17,48C358.28,55.94,356.5,63.41,354.6,71.44Z"/>
      <path d="M489.07,154.17l-28,32.24-31.22-29.32,32.71-30.8-17-13,31.22-35.79,69.83,62.82L509.8,178.13C502.81,170,496.1,162.29,489.07,154.17Z"/>
      <path d="M290.55,551.08c15-7.29,30.12-11.67,46.52-7.63,26.08,6.42,39.39,40.29,25.06,63.74-9.5,15.55-24.35,24.16-40.82,30.47-2.3.88-4.7,1.52-7.66,2.47C306,610.55,298.35,581.16,290.55,551.08ZM332,577.3c1,4.42,1.85,8.24,2.84,12.67C339.87,583.52,338.7,578.27,332,577.3Z"/>
      <path d="M443.5,580.43l-50.54,33-42.65-77,46.44-31.67c4.85,8.15,9.63,16.19,14.65,24.61-5.24,3.3-10.22,6.25-15,9.54-1.18.82-1.61,2.72-2.38,4.12l1.55,1.18,19.11-11.75,13.44,18.88L406.81,566c.61,1.36,1.19,2.66,2,4.51l20.72-13.05Z"/>
      <path d="M274.45,657.08c9.46,0,18.61-.31,27.72.11,6,.27,9.35,3.75,10.33,9.1s-1.26,10.16-6.22,13c-.82.47-1.69.85-1.58.8l12,19.33c-5.45,0-9.7.2-13.9-.13-1.1-.08-2.36-1.62-3.06-2.78-2.13-3.57-3.81-7.42-6.11-10.87-1.11-1.68-3.2-2.71-4.85-4l-1.25.77V699H274.45Zm13.09,17c3.14-.16,5.93.18,8.36-.59a5.93,5.93,0,0,0,3.37-4.06c.16-1.07-1.8-3.18-3.17-3.57-2.6-.73-5.45-.56-8.56-.79Z"/>
      <path d="M222.56,677.93c.05-13.87,8.13-21.89,22.07-21.91,14.09,0,22.2,8.21,22.12,22.43-.08,14-8,21.78-22.14,21.71C230.1,700.09,222.51,692.44,222.56,677.93Zm31.08.38c.13-8.52-3.9-13.18-10.54-12.2-4.87.72-7.29,4.37-7.45,11.26-.18,7.77,1.91,11.71,6.78,12.72C249.52,691.57,253.51,687.38,253.64,678.31Z"/>
      <path d="M175,657.17h12.52v14.39h14.39V657.14h12.85v42H202.15V682.48H187.74V699H175Z"/>
      <path d="M357.14,681.13v8.74h22.42v9.23H344.19V657.2h34.48V666H357.11v6.5h20.12v8.61Z"/>
      <path d="M321.42,657.15h12.41V699H321.42Z"/>
      <path class="c" d="M397.36,300.2c-8.47-2.23-17.31-3.56-25.34-6.86-26-10.71-53.36-13.51-81-15.43-12.77-.89-25.45-3.14-38.22-4-22.56-1.44-45.16-2.72-67.76-3.18-17.28-.35-34.15-2.19-50.56-7.75-14.59-4.94-16.12-11.72-5-22.33,5.41-5.16,10.85-6.57,18.53-4.35,11,3.17,22.44,4.64,33.76,6.43,17.07,2.7,34.21,5,51.28,7.63a14.46,14.46,0,0,1,6.56,3.23c25.84,21.55,55.92,20.44,86.33,15.56,12.83-2.06,22.78-10.45,31.9-19.51,1.73-1.72,4.25-2.76,6.56-3.75,1.81-.78,4-.69,5.77-1.53,7.52-3.53,13.86-1.43,20.48,2.87,8.3,5.41,16.31,10.92,21.92,19.3,4.93,7.38,5.35,15.3,2.59,23.41C412.75,297,408.08,299.26,397.36,300.2Z"/>
      <path class="c" d="M289.48,393c7.44,1,11.28-3.63,15.17-8.66,3.74-4.84,8-9.3,12-13.91.43-.5,1.08-.87,1.38-1.43,6-11.12,16.94-14.87,27.95-18.37a41.91,41.91,0,0,1,8.74-1.74c7.9-.7,15.82-1.16,24.17-1.74-8.61,8.63-16.79,17.54-25.73,25.62-13.19,11.92-27,23.14-40.35,34.89-2.95,2.6-5.22,3-8.12.43-5.2-4.56-10.46-9.06-15.7-13.59Z"/>
      <path class="c" d="M336.62,323.08c-1.59,5.59-6,7-10.18,8.48-3.43,1.21-7,1.93-10.57,2.89-1.12.31-2.51.39-3.28,1.1a56.11,56.11,0,0,0-6,6.65c-.29.38,1,2.71,1.24,2.66a34.87,34.87,0,0,0,7.86-2.3c3.21-1.56,6.14-3.69,9.2-5.57l.88,1.31c-2.19,1.44-4.23,3.22-6.59,4.28-11.07,5-20.17,11.83-26,23-3.52,6.71-9.42,7.43-16.68,5.42-4.61-1.28-9.78-.78-14.7-.68-3.56.07-8.24,2.15-9.78-1.87-.71-1.85,2.74-6,5.1-8.18,3.22-3.05,7.36-5.1,10.81-7.94,3.16-2.6,5.11-5.58,3.82-10.41-1.68-6.35,3.28-11.62,9.43-10,11.69,3.14,21-1.27,29.33-8.49,5.54-4.81,10.87-6.45,17.63-3C330.63,321.8,333.66,322.21,336.62,323.08Z"/>
      <path class="c" d="M280.4,321.89c-3.2,2.42-5.62,4.11-7.88,6-5,4.21-7.95,9.15-5.95,16.15.41,1.45-.56,3.94-1.74,5.07-2,1.92-4.78,3-7,4.68-3,2.27-6.92,4.25-8.57,7.35-2.41,4.53-5.76,5-9.84,4.78a31.13,31.13,0,0,1-16.94-5.86c2.6-6.78,5-13.13,7.49-19.44s6.05-10.67,13.72-9.89c1.44.15,3.37-1.21,4.54-2.4,3.36-3.44,6.56-7.08,9.63-10.79,2.16-2.62,4.62-3,7.56-1.79Z"/>
      <path class="c" d="M176.7,318.75c8.32,6,16.28,11.12,26.75,8.34l1,1.23c-8.3,11-16.33,22.22-25.11,32.81-1.64,2-6.54,2.51-9.49,1.81-4.06-.95-7.71-3.67-11.51-5.69s-7.57-4.08-11.33-6.12a28.18,28.18,0,0,0-.06-5.57c-1-5.12,1.31-8.9,6.34-9.44,8-.85,13.79-5.24,18.55-11.34C173.38,322.84,175,320.93,176.7,318.75Z"/>
      <path class="c" d="M265.38,447.8c-4.82.65-9.62,1.47-14.46,1.9-8.76.78-17.55,1.62-26.34,1.84A55.31,55.31,0,0,1,211,449.8c-3.86-.9-7.44-2.87-11.26-4-1.94-.58-4.12-.36-6.2-.51v6.58c-10-1.41-17.38,4.8-25.22,10.43-7.05,5.07-12.86,2.67-14.36-5.6-.89-4.88-3.19-7-8.22-5.92-4.15.88-6.95-.19-6.5-5.24.06-.77-.15-2.13-.6-2.3-4.55-1.77-5.66-7.78-11-8.69a8.75,8.75,0,0,1-4.7-2.65c-1.42-1.59-3.52-4.4-3-5.58,1.33-2.84,4.14-2.35,6.86-.87a67.46,67.46,0,0,0,8.07,3.16l-1.82,2.27c4,3,7.55,6.26,11.65,8.52,2.1,1.17,5.17.65,7.81.76s4.92-.08,5.34,3.66c.12,1.07,2.74,2.36,4.39,2.66a85,85,0,0,0,11.28,1.15,12.68,12.68,0,0,0,5.36-.64c11-4.58,22-3.73,33.16-.29,10,3.08,20.06,1.3,30.14.46,7.66-.63,15.35-.91,23-1.34Z"/>
      <path class="c" d="M140.69,349.37c-4.43-.77-8.54-1.42-12.61-2.23s-5.79-3.33-3.83-7.22q4.92-9.8,10.4-19.28c.51-.88,2.48-1.3,3.76-1.27,8.51.21,15.47-2.05,18.79-10.83a2.78,2.78,0,0,1,1.71-1.53c5.37-1.07,10.75-2.25,16.18-2.86,1.63-.18,3.45,1.33,5.19,2.07-.71,1.47-1.17,3.15-2.18,4.36-3.52,4.22-7.19,8.31-10.89,12.37a30.06,30.06,0,0,1-18,10c-5.49.86-6,6-7.53,10C141,344.87,141,347.08,140.69,349.37Z"/>
      <path class="c" d="M244.84,297.5c-5.45.63-8-.41-15.45-7.09,15.35-4,30.12-8.16,44.6,1.81,6.1,4.2,12.53,7.92,19.19,12.1a69.26,69.26,0,0,1-4,7.06c-.84,1.18-2.43,1.83-3.69,2.72l-1.76-3c-2.4.19-4.64,1-6.44.4q-14-4.41-27.75-9.48C248,301.5,247,299.63,244.84,297.5Z"/>
      <path class="c" d="M255.74,250.31c28.8,3,57.42.31,87.11-2.49a32.48,32.48,0,0,1-17.06,12.27c-12.77,4.16-25.69,2.62-38.6,1.34-6.92-.69-13.95-1.18-20.65-2.87-4.1-1-7.65-4.19-11.45-6.39C255.31,251.55,255.53,250.93,255.74,250.31Z"/>
      <path class="c" d="M197.59,363.09l4.5-4.24-4.83-3.73c6.77-9,13-19.05,21-27.28,3.63-3.72,10.8-4.26,16.53-5.56,3.77-.85,7.83-.48,13.41-.73-2.22,1.54-3.32,3-4.46,3-9.55.38-14.42,6.56-18.19,14.21-.37.75-.65,1.53-1,2.3-6.39,15.33-6.38,15.36-21.42,21.21C201.62,362.87,199.8,362.79,197.59,363.09Z"/>
      <path class="c" d="M207.52,163.48c-.91,1.09-1.67,2.62-2.91,3.39-5.61,3.47-11.36,6.71-17,10.08-2.46,1.45-4.37,1.64-6.27-1.14-2.53-3.69-5.5-7.08-8.35-10.55-1.66-2-2.07-3,.88-4.78,7.1-4.39,13.8-9.46,20.46-14.52,3.33-2.52,5.19-2.06,6.68,1.76C203,152.83,205.17,157.85,207.52,163.48Z"/>
      <path class="c" d="M179.56,278.3c-1.32,7.15-2.36,12.82-3.5,19L142.37,301l-1.2-1.83c2.7-5.54,5.37-11.1,8.12-16.62a2.33,2.33,0,0,1,1.57-1.06C160.21,280.41,169.57,279.39,179.56,278.3Z"/>
      <path class="c" d="M306.89,297.35c18.18-6,34.18.57,51.43,6.88-2.59,3.79-4.59,7.16-7.08,10.11-.74.88-3.08,1.18-4.33.73-12.71-4.55-25.38-9.23-38-14.13C307.82,300.5,307.39,298.27,306.89,297.35Z"/>
      <path class="c" d="M415.44,421.93l-9.35-2.57c4.19-5.34,9.11-7.83,15.3-7.22,1.78.17,4.38,1.16,4.88,2.45s-.7,3.75-1.82,5.17-3.12,2.35-4.77,3.44-3.77,1.82-4.9,3.3a9.63,9.63,0,0,0-1.87,5.77c0,.67,2.9,1.54,4.57,1.84,2.1.38,4.34.07,6.45.43,1.32.22,2.51,1.14,3.76,1.75-.23.52-.47,1-.71,1.55a14.9,14.9,0,0,0-3.62-1.43,21.92,21.92,0,0,0-4.46.38,24.73,24.73,0,0,0,1.92,3.6,12.75,12.75,0,0,1,2.71,3.72c-3.85.82-7.68,1.79-11.56,2.41-4.07.66-8.19,1-12.53,1.48l-2.56-3.68c-3.38,1.26-6.59,3.12-10,3.51-2.56.29-6.58-.47-7.76-2.23-3-4.45-7-3.68-11.07-3.74l.15-1.29c4.79.53,9.65.74,14.35,1.7,3.4.69,6.24,1,9.48-1,2.08-1.25,5.11-.85,7.67-1.41,3-.66,6.68-.67,5.86-5.56-.12-.7.8-1.66,1.4-2.38C409.56,428.84,412.19,425.77,415.44,421.93Z"/>
      <path class="c" d="M186.09,294.32c-.94-3.74,1.63-5.61,5.48-6.59,2.59-.65,5.13-1.47,7.72-2.06,8.15-1.85,12.33-.19,16.28,6.92.59,1.06,0,3.69-1,4.58-5.77,5.25-11.71,10.34-17.88,15.11-.87.67-3.8-.13-4.91-1.18C187.21,306.83,186.25,301.07,186.09,294.32Z"/>
      <path class="c" d="M161.09,375.82,129.76,387c1.58-8.11,3.06-15.72,4.59-23.54C144.51,364.52,152.07,370.79,161.09,375.82Z"/>
      <path class="c" d="M362.91,324.85c4.29-.91,8.45-1.94,12.68-2.61a14,14,0,0,1,5.38.39c5.75,1.42,11.51,2.84,17.15,4.64,4.65,1.48,6.75,5.36,7.34,10.37-1.82-2-3.7-3.91-5.44-5.95-2.53-3-5.23-3.48-9.24-2.6a146,146,0,0,1-21.1,2.62C365.11,332,362.66,329.44,362.91,324.85Z"/>
      <path class="c" d="M239.63,307.09c-8.86,4.6-17.86,7.08-28.25,6.61,2.1-2.14,4-4.59,6.34-6.38C227.91,299.63,228,299.7,239.63,307.09Z"/>
      <path class="c" d="M127.22,312l5.77,2.79c-4.3,7.59-8.55,15.09-13.33,23.51C117.26,327.23,120.49,319.14,127.22,312Z"/>
      <path class="c" d="M131.24,277.88c9.34,4,8.57,9.12,2.5,18.6C128.8,292.66,127.76,285,131.24,277.88Z"/>
      <path class="c" d="M388.22,311.28l18.66-.9c-.1,3.78-3.28,8.55-7.93,9.51C392,321.33,391.83,313.9,388.22,311.28Z"/>
      <path class="c" d="M301.9,444.38l21.89-1.33C316.17,447.68,308.92,451.21,301.9,444.38Z"/>
      <path class="c" d="M321.37,450.15c6.35-6.78,13.5-5.81,20.4-5.86l.3,1.27Z"/>
      <path class="c" d="M291,120.94c-.63,1.82-.71,3.39-1.54,4.15a29,29,0,0,1-5.73,3.82c-.13.06-2.06-2.22-1.83-2.59a22.8,22.8,0,0,1,4.67-5.69C287.3,120,289.19,120.77,291,120.94Z"/>
      <path class="c" d="M298.84,314.93c2.46-2.33,4.64-5.16,7.51-6.76,1.28-.71,3.94,1.07,7.33,2.15L300.17,316Z"/>
      <path class="c" d="M264.57,124.36c-1.7,1.42-3.21,3.48-5.16,4.07s-4.25-.36-6.4-.63c0-.78-.09-1.56-.13-2.34l10.69-2.85C263.9,123.2,264.23,123.78,264.57,124.36Z"/>
      <ellipse class="c" cx="294.79" cy="239.36" rx="26.31" ry="0.18"/>
      <path class="c" d="M323.83,131.41l-4.77-5.06c.91-.76,2.09-2.33,2.66-2.13a10.41,10.41,0,0,1,4.26,3C326.27,127.5,325,129.24,323.83,131.41Z"/>
      <path class="c" d="M370.66,307.6c-2.13.79-3.81,1.37-5.45,2-1.48.6-2.93,1.28-4.58,2C366.24,303.45,366.43,303.51,370.66,307.6Z"/>
      <path class="c" d="M300.7,126.46l5.81-6.3C308.29,125.85,307.11,127.26,300.7,126.46Z"/>
    </g>
  </g>
</svg>
