<svg xmlns="http://www.w3.org/2000/svg" viewBox="0 0 109.32 23.6">
  <title>Asset 3</title>
  <g>
    <g>
      <path class="a" d="M12.87,8.3a9.8,9.8,0,0,1,2.51-1.62,6.42,6.42,0,0,1,2.55-.54A5.77,5.77,0,0,1,22.2,7.89a5.5,5.5,0,0,1,1.4,3.26V2.36A2.36,2.36,0,0,0,21.24,0H12.87Z"/>
      <path class="a" d="M8.58,0H2.36A2.36,2.36,0,0,0,0,2.36V21.24A2.36,2.36,0,0,0,2.36,23.6H8.58Z"/>
      <path class="a" d="M18.16,10.58a2.62,2.62,0,0,0-1.65-.51,3.1,3.1,0,0,0-2.19.86,4.61,4.61,0,0,0-1.27,2.35,20.29,20.29,0,0,0-.18,3.51V23.6h6.52V16.16a19.05,19.05,0,0,0-.28-4A2.79,2.79,0,0,0,18.16,10.58Z"/>
    </g>
    <g>
      <path class="a" d="M27.67,10.31V.66h2.26v3.7H31.5V.66h2.27v9.65H31.5v-4H29.93v4Z"/>
      <path class="a" d="M34.72,10.31V.66H37v9.65Z"/>
      <path class="a" d="M37.91,10.31V.66h2.26V8.37h2.76v1.94Z"/>
      <path class="a" d="M43.61,10.31V.66h2.27V8.37h2.76v1.94Z"/>
      <path class="a" d="M51.15,7.08v.68c0,.55.19,1,.9,1,.53,0,.76-.47.76-1,0-.81-.67-1.12-1.26-1.48A6.72,6.72,0,0,1,49.84,5.1a2.83,2.83,0,0,1-.66-1.93A2.54,2.54,0,0,1,52,.43a2.69,2.69,0,0,1,2.86,3.12H52.81c0-.56,0-1.33-.75-1.39a.67.67,0,0,0-.78.65A1.19,1.19,0,0,0,52,4a17,17,0,0,1,2.11,1.36,2.85,2.85,0,0,1,.84,2.31A2.61,2.61,0,0,1,52,10.54c-2.07,0-3-1.16-3-2.43v-1Z"/>
    </g>
    <g>
      <path class="a" d="M29.93,19.08c1,0,1.61,0,1.61,1.13,0,1.3-.47,1.22-1.61,1.25Zm0-3.8c.8,0,1.46,0,1.46.92,0,1.14-.47,1.08-1.46,1.14Zm.93,7.91c1.84,0,3-.84,3-2.79a2.14,2.14,0,0,0-1.25-2.3v0a2.15,2.15,0,0,0,1.09-2c0-1.94-1.34-2.49-3-2.49H27.67v9.64Z"/>
      <path class="a" d="M36.54,15.28c1.11,0,1.59,0,1.59,1.17,0,.59-.16,1.2-.81,1.2h-.78Zm0,4.11h.75c.53,0,.71.42.77,1s0,1.39.06,2.24a2.08,2.08,0,0,0,.12.55h2.47v-.13a.83.83,0,0,1-.22-.33c-.13-.62-.14-2.28-.2-3.05a1.34,1.34,0,0,0-1.12-1.25v0a2.08,2.08,0,0,0,1.19-2.2c0-1.92-.92-2.66-2.77-2.66H34.28v9.64h2.26Z"/>
      <path class="a" d="M41.18,23.19V13.55h5.18v1.93H43.44v1.77h2.83v1.93H43.44v2.08h3.07v1.93Z"/>
      <path class="a" d="M51.24,19.62H49.92l.66-4.32h0Zm-1.83,3.57.27-1.87h1.78l.32,1.87h2.29L52,13.55H49.24l-2.11,9.64Z"/>
      <path class="a" d="M57,15.28c1.1,0,1.47.09,1.49,1.22v3.16c0,1.28,0,1.9-1.49,1.8Zm.78,7.91a3.56,3.56,0,0,0,2-.45,2.3,2.3,0,0,0,1-2.08V16.38a2.5,2.5,0,0,0-1-2.38,5.13,5.13,0,0,0-2.54-.45H54.76v9.64Z"/>
      <path class="a" d="M64.87,23.19V13.55H70.2v1.93H67.14v1.71H70v1.93H67.14v4.07Z"/>
      <path class="a" d="M73.9,19.62H72.59l.65-4.32h0Zm-1.83,3.57.28-1.87h1.77l.32,1.87h2.29l-2.1-9.64H71.91L69.8,23.19Z"/>
      <path class="a" d="M80.82,16.92V16.3c0-.82-.29-1.25-.72-1.25-.71,0-.87.37-.87,1l0,4.77c0,.55.22.87.82.87.76,0,.83-.8.83-1.4v-.86h2.26v1.18c0,1.66-1,2.81-3.26,2.81-2.09,0-2.9-1.1-2.9-3.07v-4c0-2.1,1-3.08,3-3.08s3.08.83,3.08,2.8v.81Z"/>
      <path class="a" d="M83.38,13.55h5.87v1.93H87.42v7.71H85.16V15.48H83.38Z"/>
      <path class="a" d="M93.4,20.31c0,.55-.05,1.38-.78,1.38s-.83-.83-.83-1.38v-4c0-.59.1-1.3.81-1.3s.8.71.8,1.3Zm2.27-4.11c0-1.86-1.08-2.89-3-2.89s-3.09,1-3.09,2.89v3.92c0,2.17.79,3.3,3.09,3.3s3-1.13,3-3.3Z"/>
      <path class="a" d="M98.71,15.28c1.11,0,1.58,0,1.58,1.17,0,.59-.15,1.2-.81,1.2h-.77Zm0,4.11h.75c.53,0,.71.42.77,1s0,1.39,0,2.24a2.1,2.1,0,0,0,.13.55h2.47v-.13a.83.83,0,0,1-.22-.33c-.13-.62-.14-2.28-.21-3.05a1.33,1.33,0,0,0-1.11-1.25v0a2.08,2.08,0,0,0,1.19-2.2c0-1.92-.92-2.66-2.78-2.66h-3.3v9.64h2.26Z"/>
      <path class="a" d="M105.87,16.7h0l1.16-3.15h2.26L107,19.14v4.05h-2.26V19.14l-2.28-5.59h2.29Z"/>
    </g>
  </g>
</svg>
