<svg xmlns="http://www.w3.org/2000/svg" viewBox="0 0 47.87 49.15">
  <title>Asset 4</title>
  <path class="a" d="M18.9,0h.15c.3.39.56.88.83,1.31.13.21.12.42.34.53a7,7,0,0,0,2.08.08.35.35,0,0,1,.11.25,8.61,8.61,0,0,1-.56.87l-.13.42c-.1.18-.35.41-.25.77.17.59.91,1.13.92,1.78l-.11.1H21.6a4.94,4.94,0,0,0-1.42.11c-.29.19-.31.6-.52.87a1.94,1.94,0,0,0-.21.27c-.11.24-.16.65-.48.67a6.19,6.19,0,0,1-.71-1.09c-.14-.28-.21-.61-.48-.75a2.13,2.13,0,0,0-1.13-.06l-.92,0-.08-.06c0-.34.2-.54.34-.77l.14-.36A2.07,2.07,0,0,0,16.57,4c0-.28-.59-1.23-.73-1.49s-.31-.34-.17-.56A.5.5,0,0,1,16,1.92l1.68,0C18,1.73,18.7.42,18.9,0ZM7.52,6.17c1.24,0,2.49,0,3.63.09a.85.85,0,0,1,.23.39.87.87,0,0,1-.17.65,9.42,9.42,0,0,1-.63,1.13,11.43,11.43,0,0,0-1.5,2.42c-.16.39-.17.78-.31,1.21A5.35,5.35,0,0,0,8.62,14a6.42,6.42,0,0,0,.29,1.45,9.09,9.09,0,0,0,1.23,1.76c.53.68.94,1.41,1.42,2.14a5,5,0,0,1,.63.9,4.76,4.76,0,0,1,.14,2.55,6.43,6.43,0,0,1-.73,1.46c-.29.51-.42,1.1-.73,1.58-.21.31-.44.62-.64.94a11.3,11.3,0,0,1-1.46,2.4l-2.55,0-1,0a11.33,11.33,0,0,1-1.88.08l-1,0-1.66,0c-.19,0-.51,0-.61-.06a1.34,1.34,0,0,1,0-.69A2.6,2.6,0,0,1,1,27.13c.38-.39.8-.74,1.14-1.16s.63-1.07,1-1.59c.07-.12.22-.21.3-.33.22-.3.32-.66.52-1a3.52,3.52,0,0,0,.62-1.32A3,3,0,0,0,4.08,20a8.82,8.82,0,0,0-1.53-1.79C2,17.65,1.49,17.06,1,16.43L.88,16.1a4.28,4.28,0,0,1-.46-1.25l0-.63C-.16,11.69,1.21,9.54,2.14,8A11.08,11.08,0,0,1,3.22,6.34a23.43,23.43,0,0,0,3.69-.12Zm26,5.13c.89,0,2.36.11,2.77.59a1.44,1.44,0,0,1,.27.77,1.42,1.42,0,0,1,0,.58c-.1.35-.47.52-.56.86.31.28.55.6.83.9s.76.67,1.11,1c.19.19.59.41.6.75l-2.06,0a6.22,6.22,0,0,0-.94-1.27c-.1-.11-.25-.18-.32-.32h0v.28a4.31,4.31,0,0,1,.09,1.33h0l-1.42,0c-.06-.05-.08-.09-.07-.21s0-.42,0-.64,0-.75-.08-1.13l-.06-1a13.6,13.6,0,0,1-.21-2.44A1.09,1.09,0,0,0,33.51,11.3Zm-6.14,1.9c-.55,0-1.06,0-1.29.32a1.31,1.31,0,0,0,0,1.35c.2.23.85.18,1.27.17v1.81l-.23,0L26,16.71a2.06,2.06,0,0,1-1.25-1.11,3.6,3.6,0,0,1-.2-1.83c.27-1.46.41-1.87,1.77-2.26a2.51,2.51,0,0,1,1.08-.1l0,.1ZM21.2,11.41a2.75,2.75,0,0,1,2.65,1.52A3.2,3.2,0,0,1,23,16.39a3.82,3.82,0,0,1-1.17.36,3,3,0,0,1-1.27-.08A3,3,0,0,1,19,13.06a2.92,2.92,0,0,1,1.46-1.46C20.64,11.49,21,11.53,21.2,11.41Zm9,0,.83.06a2.89,2.89,0,0,1,1.75,1.32,3.18,3.18,0,0,1-.79,3.6,4,4,0,0,1-1.21.36c-1.81.39-2.6-1.2-3-2.4A3.07,3.07,0,0,1,27.92,13a3,3,0,0,1,1.46-1.44C29.61,11.49,29.93,11.53,30.17,11.41Zm8.21,0c.91,0,1.66,0,2.55,0v0l0,1,0,.27c0,.05-.19,0-.29,0s-.58,0-.82,0v.31a.61.61,0,0,1,0,.25,2.48,2.48,0,0,0,.83,0h.38l.06.07c0,.43,0,.84,0,1.31a2.31,2.31,0,0,1-.79.08l-.23,0v0c-.06.12,0,.34,0,.46a1,1,0,0,0,.27,0c.14.09.64,0,.85,0v1.23l-.08.15H38.8a10.18,10.18,0,0,1-.12-1.19c-.17-.91,0-1.92-.23-2.79A3.62,3.62,0,0,1,38.38,11.43ZM15.67,16.79c0-.43.32-.49.5-.73a5.25,5.25,0,0,0,.55-.94c.09-.26-.16-.58-.26-.69a2.54,2.54,0,0,1-.68-.81A1.91,1.91,0,0,1,16.09,12c.11-.17.16-.5.4-.52l.58,0H18.3l0,.11c-.2.31-.8,1.18-.67,1.73s.6.89.84,1.37-.29,1.23-.46,1.55c-.08.15-.16.48-.31.56H15.67Zm19.69-3.92a1.81,1.81,0,0,1-.1.37,3.23,3.23,0,0,0-.34.15l-.12,0-.06-.21c0-.18,0-.43.06-.52A.7.7,0,0,1,35.36,12.87ZM22,13.51c.27.65-.06,1.9-1,1.61a1.08,1.08,0,0,1-.46-1.37c.15-.35.31-.38.65-.53A1.25,1.25,0,0,1,22,13.51Zm9,0,.12.62c-.07.47-.44,1.17-1.1,1a1.08,1.08,0,0,1-.46-1.37c.15-.35.31-.38.65-.53A1.09,1.09,0,0,1,30.94,13.54ZM29.31,24.46c0-1.2-.09-2.53-.12-3.71a.93.93,0,0,0-.63-.1c-.21.12-.54,0-.54-.23l-.08-1.13A.41.41,0,0,1,28,19a3.88,3.88,0,0,1,1.35-.08c.37.07.87,0,1.28,0L33,19a2.66,2.66,0,0,1,0,.81c-.11.24.1.77-.07,1a8,8,0,0,1-1.33,0,3.39,3.39,0,0,0,0,.73l0,.68c-.12.65,0,1.53-.06,2.17a1.76,1.76,0,0,1-.48,0ZM18.68,22.78l-1.15.08v0a8,8,0,0,0,0,1.56c-.57,0-1,0-1.57,0a1.77,1.77,0,0,1-.08-.79V21.9l-.06-1a8.07,8.07,0,0,1-.07-1.9,4.29,4.29,0,0,1,1,0h2v1.69h0l-1.36,0a.94.94,0,0,0,0,.66,3.88,3.88,0,0,0,1.18,0l.05.08ZM39.05,19c1.49,0,3.57.14,3.05,2-.1.35-.43.51-.56.83a5.42,5.42,0,0,1,.77.82c.35.41.82.74,1.19,1.12.19.18.59.4.6.73a3.28,3.28,0,0,1-.9,0H42c-.21-.59-.94-1.11-1.26-1.6l0,0,0,.1a5.1,5.1,0,0,1,.11,1.46.2.2,0,0,1-.13,0H39.35c-.22-.74,0-1.67-.19-2.51l-.09-1.21a6.74,6.74,0,0,1-.14-1.69Zm-11.74.1c0,.55,0,1.16,0,1.78a2.05,2.05,0,0,0-1.17.21A1.28,1.28,0,0,0,26,22.5c.21.23.85.22,1.29.21v1.78a.17.17,0,0,1-.13,0L26,24.38a2,2,0,0,1-1.23-1,2.54,2.54,0,0,1-.27-1.6,9.1,9.1,0,0,1,.06-.94C24.89,19.57,25.63,19.05,27.31,19.06Zm8.32,0a2.71,2.71,0,0,1,2.78,1.53,3.11,3.11,0,0,1-1,3.48,4,4,0,0,1-.94.29,2.41,2.41,0,0,1-2.92-1.73,2.5,2.5,0,0,1-.08-2,2.9,2.9,0,0,1,1.56-1.48Zm12.24.09c0,.43-.25.65-.39.94-.27.57-.43,1.13-.69,1.71l-.29.5V24c0,.26.07.55-.17.58H44.91a.53.53,0,0,1,0-.27l0-.54V22.59a5.91,5.91,0,0,0-.48-1.05c-.2-.44-.33-.89-.56-1.31a2.93,2.93,0,0,1-.44-1c.32-.05,1.53-.14,1.69,0l.4,1.25c0,.14,0,.38.16.44l0,0,.59-1.75Zm-26.34,0a3.93,3.93,0,0,1,.52,0,14.12,14.12,0,0,1,.65,1.29c.25.43.51.9.77,1.34.14.24.18.49.31.73a7.88,7.88,0,0,1,.84,1.89h-.19a9.31,9.31,0,0,0-1.83,0c-.1-.2-.13-.78-.34-.87l-1.25,0,0,0a2.89,2.89,0,0,1-.37.87H19l0-.08a5.81,5.81,0,0,0,.27-.77c.37-.86.65-1.85,1-2.77a10.24,10.24,0,0,1,.52-1.59C20.85,19.09,21.32,19.27,21.53,19.17ZM40.7,20.36c.16,0,.16.09.25.16,0,.39-.22.39-.48.53l-.1-.05,0-.19a1.64,1.64,0,0,1,0-.52A.77.77,0,0,1,40.7,20.36Zm-4.21.79a1.83,1.83,0,0,1,.16.63c-.07.44-.43,1.17-1.06,1a1.05,1.05,0,0,1-.5-1.4,1.06,1.06,0,0,1,.58-.5A1.4,1.4,0,0,1,36.49,21.15Zm-15,1.21a.27.27,0,0,1-.17,0l.27-1.05,0,0a2.88,2.88,0,0,1,.5,1.09ZM.93,31.43H5.06l2.17,0h.5l.77.11c.21,0,.45-.1.6,0a8.25,8.25,0,0,1,0,1.81,24.07,24.07,0,0,0,.06,3.09,2.86,2.86,0,0,1-.1.69l0,.73c.09.5-.15,1.61.15,1.85s.6,0,.94.09a9.52,9.52,0,0,0,2.31-.07c.06-.08.18-.12.23-.21a3.84,3.84,0,0,0,.08-.79,6.59,6.59,0,0,0,0-1.83l0-.63-.08-1c-.1-.56,0-1.4.52-1.4l1.54,0,4,0c.5.09,1.38-.09,1.65.19s.09.62.16,1a14.32,14.32,0,0,1,.21,2.5c0,.48-.09,1.29.23,1.46h.69l1.59,0,4.21-.1,1.77-.09v0a2.29,2.29,0,0,1,0,.75l0,1.67c0,.55-.08,1.07-.08,1.68v.55a10,10,0,0,1,.06,3c-.11.6.06,1.35-.23,1.77s-1.26.42-2.08.42c-1.61,0-3.16-.12-4.84-.12l-2.8,0-1.77,0h-.75c-.51.09-1.14,0-1.63.13-.81.16-1.73-.25-2.63-.09l-2,.09A24.94,24.94,0,0,1,6.5,49c-1.51,0-3,.1-4.38.11a5.53,5.53,0,0,1-1.72,0c-.25-.12-.21-.44-.27-.77V45a2.39,2.39,0,0,0,0-.71c-.09-.36,0-.86,0-1.17l0-.66V31.58l.32-.11Z"/>
</svg>
