<svg xmlns="http://www.w3.org/2000/svg" viewBox="0 0 97.67 19.89">
  <title>Asset 1</title>
  <g>
    <path class="a" d="M9.27,11.46a5,5,0,0,1-1.74,3,4.52,4.52,0,0,1-2.87,1,4.47,4.47,0,0,1-3.27-1.39A5.18,5.18,0,0,1,0,10.29,4.86,4.86,0,0,1,1.55,6.55a5.21,5.21,0,0,1,3.7-1.44,4.44,4.44,0,0,1,2.67.76A2.06,2.06,0,0,1,9,7.45a.83.83,0,0,1-.3.66,1.25,1.25,0,0,1-.82.25A1.31,1.31,0,0,1,6.79,8a1.5,1.5,0,0,1-.29-.86,1.28,1.28,0,0,0-.48-1A1.89,1.89,0,0,0,4.85,5.8a2.5,2.5,0,0,0-1.95.8,3.9,3.9,0,0,0-1,2.77,5.21,5.21,0,0,0,1,3.1,3.06,3.06,0,0,0,2.62,1.34,3.49,3.49,0,0,0,2.12-.69,4.79,4.79,0,0,0,1.28-1.8Z"/>
    <path class="a" d="M14.56,0V13a3.24,3.24,0,0,0,.15,1.23.94.94,0,0,0,.45.45,2.82,2.82,0,0,0,1.16.16v.37H11v-.37a2.5,2.5,0,0,0,1-.14.92.92,0,0,0,.43-.46A3.31,3.31,0,0,0,12.58,13V4.11a13.24,13.24,0,0,0-.09-2.06.8.8,0,0,0-.27-.52.72.72,0,0,0-.47-.15,2.4,2.4,0,0,0-.79.18l-.2-.38L14,0Z"/>
    <path class="a" d="M27.2,5.4v5.95a15.25,15.25,0,0,0,.08,2.06.89.89,0,0,0,.29.52.75.75,0,0,0,.46.15,2.56,2.56,0,0,0,.84-.17l.17.37-3.29,1.18h-.54v-2a10,10,0,0,1-2.15,1.69,3.7,3.7,0,0,1-1.57.34A2.67,2.67,0,0,1,19.9,15,2.49,2.49,0,0,1,19,13.76a6.58,6.58,0,0,1-.26-2.12V7.26a1.85,1.85,0,0,0-.17-.94A1.15,1.15,0,0,0,18,5.9a3.07,3.07,0,0,0-1.18-.13V5.4h3.82V12a2.27,2.27,0,0,0,.54,1.8,2,2,0,0,0,1.28.43,3,3,0,0,0,1.17-.29,6.34,6.34,0,0,0,1.55-1.11V7.26a1.52,1.52,0,0,0-.34-1.16,2.41,2.41,0,0,0-1.42-.33V5.4Z"/>
    <path class="a" d="M32.84,7.1a4.47,4.47,0,0,1,3.43-2A4,4,0,0,1,39.2,6.39,4.79,4.79,0,0,1,40.46,9.9a5.17,5.17,0,0,1-1.94,4.2,5.68,5.68,0,0,1-3.7,1.36,6.4,6.4,0,0,1-2-.31,8.94,8.94,0,0,1-2-.92V4.11a13.33,13.33,0,0,0-.09-2.06.91.91,0,0,0-.28-.52A.76.76,0,0,0,30,1.38a2.54,2.54,0,0,0-.83.18L29,1.18,32.3,0h.54Zm0,.69v5.82a4.35,4.35,0,0,0,1.26.81,3.44,3.44,0,0,0,1.33.27,2.71,2.71,0,0,0,2-1.07,4.56,4.56,0,0,0,.93-3.09,4.09,4.09,0,0,0-.93-2.88,2.84,2.84,0,0,0-2.14-1,2.91,2.91,0,0,0-1.26.3A5.46,5.46,0,0,0,32.84,7.79Z"/>
    <path class="a" d="M47.66,5.4H52.8v.37h-.34a1.11,1.11,0,0,0-.71.2.68.68,0,0,0-.24.54,2,2,0,0,0,.25.9L54.3,12.8l2.55-5.59a2.64,2.64,0,0,0,.27-.91A.37.37,0,0,0,57,6.05a.72.72,0,0,0-.34-.22,3.51,3.51,0,0,0-.82-.06V5.4h3.57v.37a1.61,1.61,0,0,0-.86.24,2.68,2.68,0,0,0-.75,1.11L54,15.46h-.55L49.57,7.24a3.19,3.19,0,0,0-.5-.86A2,2,0,0,0,48.46,6a3.19,3.19,0,0,0-.8-.18Z"/>
    <path class="a" d="M64.22,5.11V13a3.34,3.34,0,0,0,.15,1.24.94.94,0,0,0,.43.45,2.51,2.51,0,0,0,1,.15v.37H60.56v-.37a2.6,2.6,0,0,0,1.08-.14.94.94,0,0,0,.44-.46A3.11,3.11,0,0,0,62.24,13V9.23a11.45,11.45,0,0,0-.11-2.1.79.79,0,0,0-.26-.48.73.73,0,0,0-.49-.14,2.61,2.61,0,0,0-.82.16L60.4,6.3l3.3-1.19ZM63.24,0a1.23,1.23,0,0,1,.85.32,1,1,0,0,1,.35.77,1,1,0,0,1-.35.77,1.19,1.19,0,0,1-.85.32,1.21,1.21,0,0,1-.86-.32A1,1,0,0,1,62,1.09a1,1,0,0,1,.35-.77A1.26,1.26,0,0,1,63.24,0Z"/>
    <path class="a" d="M70,0a1.28,1.28,0,0,1,.87.32,1,1,0,0,1,.36.79,1,1,0,0,1-.36.75,1.23,1.23,0,0,1-.87.32,1.21,1.21,0,0,1-.86-.32,1,1,0,0,1-.36-.75,1,1,0,0,1,.36-.79A1.25,1.25,0,0,1,70,0Zm1,5.11V15a5.15,5.15,0,0,1-1.19,3.72,4.12,4.12,0,0,1-3.09,1.22,3,3,0,0,1-1.61-.35.94.94,0,0,1-.52-.73.82.82,0,0,1,.29-.64,1,1,0,0,1,.68-.27,1.68,1.68,0,0,1,.64.14,3.93,3.93,0,0,1,.77.54,1.62,1.62,0,0,0,1,.47.92.92,0,0,0,.55-.19,1.12,1.12,0,0,0,.4-.66,9.25,9.25,0,0,0,.13-2v-7a12.67,12.67,0,0,0-.1-2.09.9.9,0,0,0-.26-.49.77.77,0,0,0-.49-.14,2.56,2.56,0,0,0-.82.16L67.2,6.3l3.31-1.19Z"/>
    <path class="a" d="M79.44,5.11a5.09,5.09,0,0,1,4,1.68,4.84,4.84,0,0,1,1.28,3.3A5.59,5.59,0,0,1,84,12.75a4.71,4.71,0,0,1-1.94,2,5.53,5.53,0,0,1-2.75.68,4.85,4.85,0,0,1-3.94-1.76,5.06,5.06,0,0,1-1.23-3.32,5.38,5.38,0,0,1,.75-2.67,4.73,4.73,0,0,1,2-2A5.53,5.53,0,0,1,79.44,5.11Zm-.37.69a2.76,2.76,0,0,0-1.27.33,2.34,2.34,0,0,0-1,1.18,5.24,5.24,0,0,0-.4,2.18,6.89,6.89,0,0,0,.95,3.67,2.84,2.84,0,0,0,2.5,1.56,2.44,2.44,0,0,0,1.91-.86,4.48,4.48,0,0,0,.75-2.94,6.24,6.24,0,0,0-1.25-4.1A2.69,2.69,0,0,0,79.07,5.8Z"/>
    <path class="a" d="M89.5,7.14a5.32,5.32,0,0,1,3.66-2,2.92,2.92,0,0,1,1.54.4,2.77,2.77,0,0,1,1,1.32,5.62,5.62,0,0,1,.26,2V13a3.21,3.21,0,0,0,.17,1.27.92.92,0,0,0,.43.42,2.61,2.61,0,0,0,1.08.15v.37H92.25v-.37h.23a2,2,0,0,0,1.06-.21A1.07,1.07,0,0,0,94,14,5.65,5.65,0,0,0,94,13V9A3.75,3.75,0,0,0,93.62,7a1.4,1.4,0,0,0-1.3-.61A4.11,4.11,0,0,0,89.5,7.78V13a3.3,3.3,0,0,0,.13,1.24,1,1,0,0,0,.47.46,3.3,3.3,0,0,0,1.19.14v.37h-5.4v-.37h.23a1.33,1.33,0,0,0,1.11-.38A2.59,2.59,0,0,0,87.52,13V9.32a14,14,0,0,0-.09-2.14.89.89,0,0,0-.28-.53.79.79,0,0,0-.49-.14,2.4,2.4,0,0,0-.8.16l-.18-.37L89,5.11h.51Z"/>
  </g>
</svg>
